<svg width="512" height="427" viewBox="0 0 512 427" fill="none" xmlns="http://www.w3.org/2000/svg">
<path d="M85.3749 0.0418364C38.4691 0.0418364 0 38.3043 0 85.2092V341.292C0 388.197 38.4691 426.668 85.3749 426.668H149.125C177.597 426.668 177.597 383.959 149.125 383.959H85.3749C61.3685 383.959 42.6667 365.299 42.6667 341.292V85.2092C42.6667 61.2032 61.3685 42.5418 85.3749 42.5418H151.958C181.211 45.1059 183.697 -0.0185392 153.146 5.71453e-06L85.3749 0.0418364ZM365.042 42.5418H426.792C450.798 42.5418 469.292 61.2032 469.292 85.2092V341.292C469.292 365.299 450.798 383.959 426.792 383.959H361.25C332.778 383.959 332.778 426.668 361.25 426.668H426.792C473.697 426.668 511.958 388.197 511.958 341.292V85.2092C511.958 38.3043 473.697 0.0418364 426.792 0.0418364H363.938C336.4 0.0418364 338.605 41.9831 365.042 42.5418ZM256.083 85.2092C185.644 85.2092 128.042 142.811 128.042 213.25C128.042 283.69 185.644 341.292 256.083 341.292C326.523 341.292 384.125 283.69 384.125 213.25C384.125 142.811 326.523 85.2092 256.083 85.2092ZM256.083 127.918C303.464 127.918 341.417 165.87 341.417 213.25C341.417 260.632 303.464 298.627 256.083 298.627C208.702 298.627 170.708 260.632 170.708 213.25C170.708 165.87 208.702 127.918 256.083 127.918Z" fill="#70E000"/>
</svg>
