<svg width="500" height="500" viewBox="0 0 500 500" fill="none" xmlns="http://www.w3.org/2000/svg">
<path fill-rule="evenodd" clip-rule="evenodd" d="M67.2487 0H432.272C469.261 0 499.521 30.26 499.521 67.2487V432.272C499.521 469.261 469.261 499.521 432.272 499.521H67.2487C30.26 499.521 0 469.261 0 432.272V67.2355C0.0132197 30.26 30.2732 0 67.2487 0Z" fill="#70E000"/>
<path fill-rule="evenodd" clip-rule="evenodd" d="M291.574 437.071H205.514C193.061 437.071 182.697 428.134 180.872 415.813L163.806 301.026C163.277 297.51 165.709 294.245 169.226 293.716C172.742 293.2 176.007 295.62 176.536 299.136L193.603 413.91C194.489 419.872 199.499 424.195 205.527 424.195H291.574C297.563 424.195 302.454 420.057 303.459 414.161L323.024 299.004C323.619 295.501 326.937 293.148 330.44 293.742C333.943 294.337 336.297 297.655 335.702 301.159L316.137 416.329C314.101 428.346 303.763 437.071 291.574 437.071Z" fill="white"/>
<path fill-rule="evenodd" clip-rule="evenodd" d="M345.564 306.526H153.97C150.427 306.526 147.532 303.644 147.532 300.088V276.411C147.532 259.807 161.043 246.297 177.647 246.297H321.874C338.478 246.297 351.989 259.807 351.989 276.411V300.101C351.989 303.644 349.107 306.526 345.564 306.526ZM160.408 293.663H339.139V276.411C339.139 266.906 331.405 259.159 321.887 259.159H177.66C168.155 259.159 160.408 266.893 160.408 276.411V293.663Z" fill="white"/>
<path fill-rule="evenodd" clip-rule="evenodd" d="M183.014 392.89C179.471 392.89 176.589 390.022 176.576 386.465C176.576 382.923 179.457 380.027 183 380.014L314.708 379.842H314.722C318.265 379.842 321.147 382.724 321.16 386.267C321.16 389.81 318.278 392.705 314.735 392.718C308.522 392.718 183.027 392.89 183.014 392.89ZM170.362 344.625C170.362 341.082 173.244 338.187 176.787 338.187L321.807 338.015H321.821C325.364 338.015 328.259 340.884 328.259 344.44C328.259 347.983 325.377 350.878 321.834 350.878L176.814 351.05C173.628 351.195 170.362 348.419 170.362 344.625Z" fill="white"/>
<path fill-rule="evenodd" clip-rule="evenodd" d="M281.898 222.673C272.102 222.673 262.848 218.707 254.863 210.709C240.15 197.225 239.515 175.954 253.237 156.455C274.733 125.415 321.729 120.101 340.937 119.255C344.771 119.083 347.917 122.309 347.639 126.143C347.481 128.35 343.462 180.449 319.865 204.258C309.95 214.199 296.03 222.673 281.898 222.673ZM333.983 132.594C314.074 134.339 279.743 140.764 263.773 163.819C259.966 169.226 248.782 187.813 263.628 201.31C263.707 201.389 263.8 201.455 263.853 201.535C278.553 216.328 295.62 209.757 310.756 195.15C326.223 179.511 332.067 147.162 333.983 132.594Z" fill="white"/>
<path fill-rule="evenodd" clip-rule="evenodd" d="M283.696 145.681C280.153 145.602 277.324 142.667 277.403 139.111C277.879 117.034 259.385 90.5022 250.395 78.9614C241.168 90.5022 221.947 117.021 221.312 138.397C221.206 141.94 218.232 144.73 214.689 144.637C211.146 144.531 208.343 141.557 208.449 138.014C209.441 105.308 244.182 66.2176 245.663 64.5651C248.161 61.7758 252.669 61.6568 255.273 64.6048C256.728 66.2573 290.98 105.441 290.266 139.402C290.174 143.156 286.855 145.906 283.696 145.681Z" fill="white"/>
<path fill-rule="evenodd" clip-rule="evenodd" d="M217.636 222.673C205.434 222.673 192.36 216.526 179.775 204.351C179.748 204.311 179.709 204.284 179.682 204.245C156.085 180.423 152.066 128.324 151.908 126.129C151.63 122.269 154.79 119.07 158.61 119.242C177.818 120.088 224.828 125.416 246.336 156.495C260.032 175.955 259.397 197.225 244.684 210.722C236.686 218.707 227.445 222.673 217.636 222.673ZM188.764 195.163C201.164 207.14 219.368 217.94 235.668 201.548L235.893 201.323C250.738 187.813 239.568 169.239 235.774 163.872C219.778 140.764 185.433 134.352 165.524 132.607C167.467 147.162 173.31 179.511 188.764 195.163Z" fill="white"/>
<path fill-rule="evenodd" clip-rule="evenodd" d="M249.787 259.16C246.244 259.16 243.349 256.278 243.349 252.722V183.543C243.349 180 246.217 177.105 249.787 177.105C253.33 177.105 256.225 179.987 256.225 183.543V252.722C256.225 256.278 253.343 259.16 249.787 259.16Z" fill="white"/>
</svg>
